<svg id="Layer_1" xmlns="http://www.w3.org/2000/svg" viewBox="0 0 1280 635"><style>.st0{fill:#010101}.st1{opacity:.15;fill:#9b9c9c;enable-background:new}.st2{opacity:.1;fill:#919fa9}.st3{fill:url(#SVGID_1_)}</style><path id="XMLID_39_" class="st0" d="M-16.3-7.5H1285v648.7H-16.3z"/><path class="st1" d="M1282.1-6.5h-6.7l-2.1-3.7-.4.3-.4-.3-2.1 3.7h-34.6l-2.1-3.7-.4.3-.4-.3-2.1 3.7h-34.7l-2.1-3.7-.4.3-.4-.3-2.1 3.7H1156l-2.1-3.7-.4.3-.4-.3-2.1 3.7h-34.6l-2.1-3.7-.4.3-.4-.3-2.1 3.7h-34.7l-2.1-3.7-.4.3-.4-.3-2.1 3.7h-34.6l-2.1-3.7-.4.3-.4-.3-2.1 3.7h-34.7l-2.1-3.7-.4.3-.4-.3-2.1 3.7h-34.7l-2.1-3.7-.4.3-.4-.3-2.8 3.7h-34.6l-2.1-3.7-.4.3-.4-.3-2.1 3.7h-34.7l-2.1-3.7-.6.3-.4-.3-2.1 3.7h-34.6l-2.1-3.7-.4.3-.4-.3-2.1 3.7h-34.7l-2.1-3.7-.4.3-.4-.3-2.1 3.7h-34.7l-2.1-3.7-.4.3-.4-.3-2.1 3.7h-34.6l-2.1-3.7-.8.3-.4-.3-2.1 3.7h-34.7l-2.1-3.7-.4.3-.4-.3-2.1 3.7H639l-2.1-3.7-.4.3-.4-.3-2.1 3.7h-34.7l-2.1-3.7-.4.3-.4-.3-2.1 3.7h-34.7l-2.1-3.7-.4.3-.4-.3-2.1 3.7H520l-2.1-3.7-.4.3-.4-.3-2.1 3.7h-34.7l-2.1-3.7-.4.3-.4-.3-2.1 3.7h-34.6l-2.1-3.7-.4.3-.4-.3-2.1 3.7H401l-2.1-3.7-.4.3-.4-.3-2.1 3.7h-34.7l-2.1-3.7-1.2.3-.4-.3-2.1 3.7h-34.6l-2.1-3.7-.4.3-.4-.3-2.1 3.7h-34.7l-2.1-3.7-.4.3-.4-.3-2.1 3.7h-34.6l-2.1-3.7-.4.3-.4-.3-2.1 3.7h-34.7l-2.1-3.7-.8.3-.4-.3-2.1 3.7h-34.7l-2.1-3.7-.4.3-.4-.3-2.1 3.7H122l-2.1-3.7-.4.3-.4-.3-2.1 3.7H82.2l-2.1-3.7-.4.3-.4-.3-2.1 3.7H42.5l-2.1-3.7-.4.3-.4-.3-2.1 3.7H2.7L.6-10.2l-.5.3-.4-.3-2.1 3.7H-15v21.8l-4.7 8.2-3.9-6.8v2l3 5.3h-3v1h3.1l-3.1 5.3v2l3.9-6.8 4.7 8.1-.1 24.8h-8.6v1h8.6l-.1 25.1-4.5 7.8-4-6.9v2l3.1 5.4h-3.1v1h3.1l-3.1 5.4v2l4-6.9 4.4 7.7-.1 25.2h-8.4v1h8.4l-.1 25.4-4.3 7.5-4-6.8v2l3.1 5.3h-3.1v1h3.1l-3.1 5.3v2l4-6.8 4.3 7.4-.1 25.5h-8.2v1h8.2l-.1 25.8-4.1 7.1-4-6.9v2l3.1 5.4h-3.1v1h3.1l-3.1 5.4v2l4-6.9 4.1 7-.1 25.9h-8v1h8l-.1 26.1-3.9 6.8-4-6.9v2l3.1 5.4h-3.1v1h3.1l-3.1 5.3v2l4-6.9 3.9 6.7-.1 26.7h-7.8v1h7.8l-.1 26.5-3.7 6.4-4-6.9v2l3.1 5.3h-3.1v1h3.1l-3.1 5.4v2l4-6.9 3.7 6.4-.1 26.6h-7.6v1h7.5l-.1 26.9-3.5 6-4-6.9v2l3.1 5.4h-3.1v1h3.1l-3.1 5.4v2l4-6.9 3.4 6-.1 26.9h-7.3v1h7.3l-.1 27.2-3.3 5.7-4-6.9v2l3.1 5.4H-24v1h3.1l-3.1 5.3v2l4-6.9 3.3 5.7-.1 27.3h-7.1v1h7.1l-.1 27.6-3.1 5.4-4-6.9v2l3.1 5.3H-24v1h3.1l-3.1 5.4v2l4-6.9 3.1 5.3-.1 27.6h-6.9v1h6.9l-.1 27.9-2.9 5-4-6.9v2l3.1 5.4h1.7l2-3.5v3.5h1v-5.3l16-27.7 19 32.9h1.8l19-32.9 19 32.9h1.8l19-32.9 19 32.9h1.7l19-32.9 19 32.9h1.8l19-32.9 19 32.9h1.7l19-32.9 19 32.9h1.7l19-32.9 19 32.9h1.8l19-32.9 19 32.9h1.7l19-32.9 19 32.9h1.8l19-32.9 19 32.9h1.7l19-32.9 19 32.9h1.7l19-32.9 19 32.9h1.8l19-32.9 19 32.9h1.7l19-32.9 19 32.9h1.8l19-32.9 19 32.9h1.7l19-32.9 19 32.9h1.7l19-32.9 19 32.9h1.8l19-32.9 19 32.9h1.7l19-32.9 19 32.9h1.8l19-32.9 19 32.9h1.8l19-32.9 19 32.9h1.8l19-32.9 19 32.9h-5H1214l38-.1.1.1h1.7l.1-.1 28.2-.1V-6.5zM-16.7 579.9l-2.2-3.8h2.2v3.8zm0-4.8h-2.2l2.2-3.8v3.8zm.2-63.8l-2.4-4.1h2.4v4.1zm0-5.1h-2.4l2.4-4.2v4.2zm.2-63.4l-2.6-4.5h2.6v4.5zm0-5.5h-2.6l2.6-4.5v4.5zm.2-63l-2.8-4.8h2.8v4.8zm0-5.9h-2.8l2.8-4.9v4.9zM1272.7-8.9l1.4 2.4h-2.8l1.4-2.4zm-3.1 3.4l-16.7 28.9-16.7-28.9h33.4zM796.4 541.6h38.1l-19 33-19.1-33zm38 67.9h-38l19-32.9 19 32.9zm-77.8-67.9h38l-19 32.9-19-32.9zm38 67.9h-38l19-32.9 19 32.9zm-117.5-67.9h38.1l-19 33-19.1-33zm38 67.9h-38l19-32.9 19 32.9zm1.8-136.7h38l-19 32.9-19-32.9zm38 67.8h-38l19-32.9 19 32.9zM100.4 369.4h38l-19 32.9-19-32.9zm18.1 33.5h-38l19-32.9 19 32.9zm856.9-102.4h38l-19 32.9-19-32.9zm18.1 33.5h-38l19-32.9 19 32.9zm20.8-33l19 32.9h-38l19-32.9zm.9-.5h38l-19 32.9-19-32.9zm38.8.6l19 32.9h-38l19-32.9zm.9-.6h38l-19 32.9-19-32.9zm38.9.5l19 32.9h-38l19-32.9zm0-2l-19-32.9h38l-19 32.9zm-.9.5h-38l19-32.9 19 32.9zm-38.9-.4l-19-33h38.1l-19.1 33zm-.9.4h-38l19-32.9 19 32.9zm-38.8-.5l-19-32.9h38l-19 32.9zm-.9.5h-38l19-32.9 19 32.9zm-38.9-.5l-19-32.9h38l-19 32.9zm-.9.5h-38l19-32.9 19 32.9zm-38.9-.4l-19-33h38.1l-19.1 33zm-.9.4h-38l19-32.9 19 32.9zM895 299l-19-32.9h38L895 299zm-.9.5h-38l19-32.9 19 32.9zm-38.9-.4l-19-33h38.1l-19.1 33zm-.9.4h-38l19-32.9 19 32.9zm-38.9-.5l-19-32.9h38l-19 32.9zm-.9.5h-38.1l19-33 19.1 33zm-38.9-.5l-19-32.9h38l-19 32.9zm-.8.5h-38l19-32.9 19 32.9zm-38.9-.4l-19-33H755l-19.1 33zm-1 .4h-38l19-32.9 19 32.9zm-38.8-.5l-19-32.9h38l-19 32.9zm-.9.5h-38l19-32.9 19 32.9zm-38.9-.4l-19-33h38.1l-19.1 33zm-.9.4h-38l19-32.9 19 32.9zm-38.8-.5l-19-32.9h38l-19 32.9zm-.9.5h-38.1l19-33 19.1 33zm-38.9-.5l-19-32.9h38l-19 32.9zm-.9.5h-38l19-32.9 19 32.9zm-38.9-.4l-19-33h38l-19 33zm-.9.4h-38l19-32.9 19 32.9zm-38.9-.5l-19-32.9h38l-19 32.9zm-.8.5h-38l19-32.9 19 32.9zm-38.9-.4l-19-33h38.1l-19.1 33zm-.9.4h-38l19-32.9 19 32.9zm-38.9-.5l-19-32.9h38l-19 32.9zm-.9.5h-38.1l19-33 19.1 33zm-38.9-.5l-19-32.9h38l-19 32.9zm-.8.5h-38l19-32.9 19 32.9zm-39-.4l-19-33h38.1l-19.1 33zm-.9.4h-38l19-32.9 19 32.9zm-38.8-.5l-19-32.9h38l-19 32.9zm-.9.5h-38l19-32.9 19 32.9zm-38.9-.4l-19-33h38.1l-19.1 33zm-.9.4h-38l19-32.9 19 32.9zm-38.8-.5l-19-32.9h38l-19 32.9zm-.9.5h-38.1l19-33 19.1 33zm-38.9-.5l-19-32.9h38l-19 32.9zm-.9.5h-38l19-32.9 19 32.9zm0 1l-19 32.9-19-32.9h38zm.9.5l19 33h-38l19-33zm.9-.5h38l-19 32.9-19-32.9zm38.9.5l19 32.9h-38l19-32.9zm.8-.5h38l-19 32.9-19-32.9zm38.9.6l19 32.9h-38l19-32.9zm.9-.6h38l-19 32.9-19-32.9zm38.9.5l19 33h-38.1l19.1-33zm.9-.5h38l-19 32.9-19-32.9zm38.8.6l19 32.9h-38l19-32.9zm.9-.6h38l-19 32.9-19-32.9zm38.9.5l19 32.9h-38l19-32.9zm.9-.5h38l-19 32.9-19-32.9zm38.9.5l19 32.9h-38l19-32.9zm.9-.5h38l-19 32.9-19-32.9zm38.9.6l19 32.9h-38l19-32.9zm.8-.6h38l-19 32.9-19-32.9zm38.9.5l19 33h-38.1l19.1-33zm.9-.5h38l-19 32.9-19-32.9zm38.9.6l19 32.9h-38l19-32.9zm.9-.6h38l-19 32.9-19-32.9zm38.9.5l19 32.9h-38l19-32.9zm.9-.5h38l-19 32.9-19-32.9zm38.9.5l19 32.9h-38l19-32.9zm.8-.5h38l-19 32.9-19-32.9zm38.9.6l19 32.9h-38l19-32.9zm.9-.6h38l-19 32.9-19-32.9zm38.9.5l19 33H677l19.1-33zm.9-.5h38l-19 32.9-19-32.9zm38.9.6l19 32.9h-38l19-32.9zm.8-.6h38l-19 32.9-19-32.9zm38.9.5l19 32.9h-38l19-32.9zm.9-.5h38l-19 32.9-19-32.9zm38.9.5l19 32.9h-38l19-32.9zm.9-.5h38l-19 32.9-19-32.9zm38.9.6l19 32.9h-38l19-32.9zm.8-.6h38.1l-19 33-19.1-33zm39 .5l19 32.9h-38l19-32.9zm.8-.5h38l-19 32.9-19-32.9zm38.9.6l19 32.9h-38l19-32.9zm.9-.6h38.1l-19 33-19.1-33zm19 35l19 32.9h-38l19-32.9zm.9-.5h38.1l-19 33-19.1-33zm38.9.5l19 32.9h-38l19-32.9zm.9-.5h38l-19 32.9-19-32.9zm38.9.5l19 32.9h-38l19-32.9zm.9-.5h38l-19 32.9-19-32.9zm38.8.5l19 32.9h-38l19-32.9zm.9-.5h38.1l-19 33-19.1-33zm38.9.5l19 32.9h-38l19-32.9zm0-2l-19-32.9h38l-19 32.9zm-19-34l19-32.9 19 32.9h-38zm19-34.9l-19-33h38l-19 33zm-.9.5h-38l19-32.9 19 32.9zm-38.9-.5l-19-32.9h38l-19 32.9zm-.8.5h-38l19-32.9 19 32.9zm-38.9-.5l-19-33h38.1l-19.1 33zm-.9.5h-38l19-32.9 19 32.9zm-38.9-.5l-19-32.9h38l-19 32.9zm-.9.5h-38l19-32.9 19 32.9zm-38.9-.5l-19-32.9h38l-19 32.9zm-.9.5h-38l19-32.9 19 32.9zm-38.9-.5l-19-33h38.1l-19.1 33zm-.9.5h-38l19-32.9 19 32.9zm-38.8-.5l-19-32.9h38l-19 32.9zm-.9.5h-38l19-32.9 19 32.9zm-38.9-.5l-19-32.9h38l-19 32.9zm-.9.5h-38l19-32.9 19 32.9zm-38.9-.6l-19-32.9h38l-19 32.9zm-.8.6h-38l19-32.9 19 32.9zm-38.9-.5l-19-32.9h38l-19 32.9zm-.9.5h-38l19-32.9 19 32.9zm-39-.5l-19-32.9h38l-19 32.9zm-.8.5h-37.9l19-32.9 18.9 32.9zm-38.9-.5l-19-32.9h38l-19 32.9zm-.8.5h-38l19-32.9 19 32.9zm-39-.5l-19-32.9h38l-19 32.9zm-.9.5h-38l19-32.9 19 32.9zm-38.8-.6l-19-32.9h38l-19 32.9zm-.9.6h-38l19-32.9 19 32.9zm-38.9-.5l-19-32.9h38l-19 32.9zm-.9.5h-38l19-32.9 19 32.9zm-38.9-.5l-19-32.9h38l-19 32.9zm-.9.5h-37.9l19-32.9 18.9 32.9zm-38.8-.5l-19-32.9h38l-19 32.9zm-.9.5h-38l19-32.9 19 32.9zm-38.9-.5l-19-32.9h38l-19 32.9zm-.9.5h-38l19-32.9 19 32.9zm-38.9-.6l-19-32.9h38l-19 32.9zm-.8.6h-38l19-32.9 19 32.9zm-38.9-.5l-19-32.9h38l-19 32.9zm-.9.5h-38l19-32.9 19 32.9zm-39-.5l-19-32.9h38l-19 32.9zm-.8.5h-37.9l19-32.9 18.9 32.9zm-38.9-.5l-19-32.9h38l-19 32.9zm-.9.5h-38l19-32.9 19 32.9zm-38.9-.5l-19-32.9h38l-19 32.9zm-.9.5h-38l19-32.9 19 32.9zm-38.8-.6l-19-32.9h38l-19 32.9zm-.9.6h-38l19-32.9 19 32.9zm-38.9-.5l-19-32.9h38l-19 32.9zm-.9.5h-38l19-32.9 19 32.9zm0 1l-19 33-19-33h38zm-19 35l19 32.9h-38l19-32.9zm19 33.9l-19 32.9-19-32.9h38zm.9.5l19 32.9h-38l19-32.9zm.8-.5h38.1l-19 33-19.1-33zm39 .5l19 32.9h-38l19-32.9zm.8-.5h38l-19 32.9-19-32.9zm39 .5l19 32.9h-38l19-32.9zm.8-.5h38l-19 32.9-19-32.9zm38.9.5l19 32.9h-38l19-32.9zm.9-.5h38l-19 32.9-19-32.9zm38.9.5l19 32.9h-38l19-32.9zm.9-.5h38l-19 32.9-19-32.9zm38.8.5l19 32.9h-38l19-32.9zm.9-.5h38l-19 32.9-19-32.9zm38.9.5l19 32.9h-38l19-32.9zm.9-.5h38l-19 32.9-19-32.9zm38.9.5l19 32.9h-38l19-32.9zm.9-.5h38l-19 32.9-19-32.9zm38.8.5l19 32.9h-38l19-32.9zm.9-.5h38l-19 32.9-19-32.9zm38.9.5l19 32.9h-38l19-32.9zm.9-.5h38l-19 32.9-19-32.9zm38.9.5l19 32.9h-38l19-32.9zm.8-.5h38l-19 32.9-19-32.9zm39 .5l19 32.9h-38l19-32.9zm.8-.5h38l-19 32.9-19-32.9zm39 .5l19 32.9h-38l19-32.9zm.8-.5h38l-19 32.9-19-32.9zm38.9.5l19 32.9h-38l19-32.9zm.9-.5h38l-19 32.9-19-32.9zm38.9.5l19 32.9h-38l19-32.9zm.9-.5h38l-19 32.9-19-32.9zm38.8.5l19 32.9h-38l19-32.9zm.9-.5h38l-19 32.9-19-32.9zm38.9.5l19 32.9h-38l19-32.9zm.9-.5h38l-19 32.9-19-32.9zm38.9.5l19 32.9h-38l19-32.9zm.9-.5h38l-19 32.9-19-32.9zm38.9.5l19 32.9h-38l19-32.9zm.8-.5H914l-19 33-19.1-33zm39 .5l19 32.9h-38l19-32.9zm.8-.5h38l-19 32.9-19-32.9zm19 34.9l19 32.9h-38l19-32.9zm.9-.5h38l-19 32.9-19-32.9zm38.9.6l19 32.9h-38l19-32.9zm.8-.6h38.1l-19 33-19.1-33zm39 .6l19 32.9h-38l19-32.9zm.8-.6h38l-19 32.9-19-32.9zm39 .5l19 32.9h-38l19-32.9zm.8-.5h38l-19 32.9-19-32.9zm38.9.6l19 32.9h-38l19-32.9zm.9-.6h38l-19 32.9-19-32.9zm38.9.5l19 32.9h-38l19-32.9zm-19-34.9h38l-19 32.9-19-32.9zm0-1l19-32.9 19 32.9h-38zm-.1-67.9h38.1l-19 33-19.1-33zm.1-1l19-32.9 19 32.9h-38zm19-35l-19-32.9h38l-19 32.9zm-.9.5h-38l19-32.9 19 32.9zm-38.9-.4l-19-33h38.1l-19.1 33zm-.9.4h-38l19-32.9 19 32.9zm-38.8-.5l-19-32.9h38l-19 32.9zm-.9.5h-38l19-32.9 19 32.9zm-38.9-.4l-19-33h38.1l-19.1 33zm-.9.4h-38l19-32.9 19 32.9zm-38.9-.5l-19-32.9h38l-19 32.9zm-.9.5h-38l19-32.9 19 32.9zm-38.9-.4l-19-32.9h38l-19 32.9zm-.9.4h-38l19-32.9 19 32.9zm-38.9-.4l-19-33H914l-19.1 33zm-.9.4h-38l19-32.9 19 32.9zm-38.8-.5l-19-32.9h38l-19 32.9zm-.9.5h-38.1l19-33 19.1 33zm-38.9-.5l-19-32.9h38l-19 32.9zm-.9.5h-38l19-32.9 19 32.9zm-38.8-.5l-19-32.9h38l-19 32.9zm-.9.5h-38.1l19-33 19.1 33zm-38.9-.5l-19-32.9h38l-19 32.9zm-.9.5h-38l19-32.9 19 32.9zm-38.9-.4l-19-33h38.1l-19.1 33zm-.9.4h-38l19-32.9 19 32.9zm-38.9-.5l-19-32.9h38l-19 32.9zm-.8.5h-38.1l19-33 19.1 33zm-39-.5l-19-32.9h38l-19 32.9zm-.8.5h-38l19-32.9 19 32.9zm-38.9-.5l-19-32.9h38l-19 32.9zm-.9.5h-38.1l19-33 19.1 33zm-38.9-.5l-19-32.9h38l-19 32.9zm-.9.5h-38l19-32.9 19 32.9zm-38.9-.4l-19-33h38.1l-19.1 33zm-.9.4h-38l19-32.9 19 32.9zm-38.8-.5l-19-32.9h38l-19 32.9zm-.9.5h-38.1l19-33 19.1 33zm-38.9-.5l-19-32.9h38l-19 32.9zm-.9.5h-38l19-32.9 19 32.9zm-38.9-.5l-19-32.9h38l-19 32.9zm-.8.5H339l19-33 19.1 33zm-38.9-.5l-19-32.9h38l-19 32.9zm-.9.5h-38l19-32.9 19 32.9zm-38.9-.4l-19-33h38.1l-19.1 33zm-.9.4h-38l19-32.9 19 32.9zm-38.9-.5l-19-32.9h38l-19 32.9zm-.8.5h-38.1l19-33 19.1 33zm-39-.5l-19-32.9h38l-19 32.9zm-.8.5h-38l19-32.9 19 32.9zm-38.9-.5l-19-32.9h38l-19 32.9zm-.9.5h-38.1l19-33 19.1 33zm-38.9-.5l-19-32.9h38l-19 32.9zm-.9.5h-38l19-32.9 19 32.9zm0 1.1l-19 32.9-19-32.9h38zm-19 34.9l19 32.9h-38l19-32.9zm19 33.9l-19 32.9-19-32.9h38zm-19 35l19 32.9h-38l19-32.9zm19.9 34.4l19 33h-38.1l19.1-33zm.9-.5h38l-19 32.9-19-32.9zm38.9.6l19 32.9h-38l19-32.9zm.8-.6H218l-19 33-19.1-33zm39 .5l19 32.9h-38l19-32.9zm.8-.5h38l-19 32.9-19-32.9zm38.9.5l19 32.9h-38l19-32.9zm.9-.5h38l-19 32.9-19-32.9zm38.9.6l19 32.9h-38l19-32.9zm.9-.6h38l-19 32.9-19-32.9zm38.9.5l19 33h-38.1l19.1-33zm.9-.5h38l-19 32.9-19-32.9zm38.8.6l19 32.9h-38l19-32.9zm.9-.6h38.1l-19 33-19.1-33zm38.9.6l19 32.9h-38l19-32.9zm.9-.6h38l-19 32.9-19-32.9zm38.9.5l19 33h-38.1l19.1-33zm.9-.5h38l-19 32.9-19-32.9zm38.8.6l19 32.9h-38l19-32.9zm.9-.6h38l-19 32.9-19-32.9zm38.9.5l19 33h-38l19-33zm.9-.5h38l-19 32.9-19-32.9zm38.9.6l19 32.9h-38l19-32.9zm.8-.6h38.1l-19 33-19.1-33zm39 .6l19 32.9h-38l19-32.9zm.8-.6h38l-19 32.9-19-32.9zm38.9.5l19 33h-38.1l19.1-33zm.9-.5h38l-19 32.9-19-32.9zm38.9.6l19 32.9h-38l19-32.9zm.9-.6h38l-19 32.9-19-32.9zm38.9.5l19 33h-38.1l19.1-33zm.9-.5h38l-19 32.9-19-32.9zm38.8.6l19 32.9h-38l19-32.9zm.9-.6h38.1l-19 33-19.1-33zm38.9.6l19 32.9h-38l19-32.9zm.9-.6h38l-19 32.9-19-32.9zm38.9.5l19 32.9h-38l19-32.9zm.9-.5h38l-19 32.9-19-32.9zm38.9.6l19 32.9h-38l19-32.9zm.8-.6h38.1l-19 33-19.1-33zm19 35l19 32.9h-38l19-32.9zm.9-.5h38.1l-19 33-19.1-33zm38.9.5l19 32.9h-38l19-32.9zm.9-.5h38l-19 32.9-19-32.9zm38.9.5l19 32.9h-38l19-32.9zm.8-.5h38.1l-19 33-19.1-33zm39 .5l19 32.9h-38l19-32.9zm.8-.5h38l-19 32.9-19-32.9zm38.9.5l19 32.9h-38l19-32.9zm.9-.5h38l-19 32.9-19-32.9zm38.9.5l19 32.9h-38l19-32.9zm.9-.5h38l-19 32.9-19-32.9zm38.9.5l19 32.9h-38l19-32.9zm-19-35h38l-19 32.9-19-32.9zm0-1l19-32.9 19 32.9h-38zm19-34.9l-19-32.9h38l-19 32.9zm-19-34l19-32.9 19 32.9h-38zm0-67.8h38l-19 32.9-19-32.9zm0-1.1l19-32.9 19 32.9h-38zm19-34.9l-19-32.9h38l-19 32.9zm-.9.5h-38l19-32.9 19 32.9zm-38.9-.5l-19-33h38l-19 33zm-.9.5h-38l19-32.9 19 32.9zm-38.9-.5l-19-33h38.1l-19.1 33zm-.9.5h-38l19-32.9 19 32.9zm-38.8-.5l-19-32.9h38l-19 32.9zm-.9.5h-38l19-32.9 19 32.9zm-38.9-.5l-19-33h38.1l-19.1 33zm-.9.5h-38l19-32.9 19 32.9zm-38.9-.5l-19-32.9h38l-19 32.9zm-.8.5h-38l19-32.9 19 32.9zm-38.9-.5l-19-32.9h38l-19 32.9zm-.9.5h-38l19-32.9 19 32.9zm-39-.5l-19-32.9h38l-19 32.9zm-.8.5h-38l19-32.9 19 32.9zm-38.9-.5l-19-32.9h38l-19 32.9zm-.9.5h-38l19-32.9 19 32.9zm-38.9-.5l-19-33h38.1l-19.1 33zm-.9.5h-38l19-32.9 19 32.9zm-38.9-.5l-19-32.9h38l-19 32.9zm-.8.5h-38l19-32.9 19 32.9zm-38.9-.5l-19-33h38l-19 33zm-.9.5h-38l19-32.9 19 32.9zm-38.9-.5l-19-33h38.1l-19.1 33zm-.9.5h-38l19-32.9 19 32.9zm-38.9-.5l-19-32.9h38l-19 32.9zm-.8.5h-38l19-32.9 19 32.9zm-38.9-.5l-19-33h38.1l-19.1 33zm-.9.5h-38l19-32.9 19 32.9zm-38.9-.5l-19-32.9h38l-19 32.9zm-.9.5h-38l19-32.9 19 32.9zm-38.9-.5l-19-33h38.1l-19.1 33zm-.8.5h-38l19-32.9 19 32.9zm-39-.5l-19-33h38.1l-19.1 33zm-.9.5h-38l19-32.9 19 32.9zm-38.8-.5l-19-32.9h38l-19 32.9zm-.9.5h-38l19-32.9 19 32.9zm-38.9-.5l-19-33h38.1l-19.1 33zm-.9.5h-38l19-32.9 19 32.9zm-38.9-.5l-19-32.9h38l-19 32.9zm-.8.5h-38l19-32.9 19 32.9zm-38.9-.5l-19-32.9h38l-19 32.9zm-.9.5h-38l19-32.9 19 32.9zm-38.9-.5l-19-33h38.1l-19.1 33zm-.9.5h-38l19-32.9 19 32.9zm-38.9-.6l-19-32.9h38l-19 32.9zm-.8.6h-38l19-32.9 19 32.9zm-38.9-.5l-19-33h38l-19 33zm-.9.5h-38l19-32.9 19 32.9zm-38.9-.5l-19-32.9h38l-19 32.9zm-.9.5h-38l19-32.9 19 32.9zm-38.9-.5l-19-32.9h38l-19 32.9zm-.9.5h-38l19-32.9 19 32.9zm.1 1l-19 33-19-33h38zm-19.1 35l19 32.9h-38l19-32.9zm19 33.9l-19 32.9-19-32.9h38zm-19 34.9l19 33h-38l19-33zm19.1 34l-19 32.9-19-32.9h38zm-38.9 67.3l-19-32.9h38l-19 32.9zm19 35h-38l19-32.9 19 32.9zm-18.2-33.4h38l-19 32.9-19-32.9zm38.9.5l19 32.9h-38l19-32.9zm.9-.5h38l-19 32.9-19-32.9zm38.9.4l19 32.9h-38l19-32.9zm.9-.4h38l-19 32.9-19-32.9zm38.9.5l19 32.9h-38l19-32.9zm.8-.5h38l-19 32.9-19-32.9zm38.9.5l19 32.9h-38l19-32.9zm.9-.5h38l-19 32.9-19-32.9zm38.9.5l19 32.9h-38l19-32.9zm.9-.5h38l-19 32.9-19-32.9zm38.9.5l19 32.9h-38l19-32.9zm.8-.5h38l-19 32.9-19-32.9zm39 .4l19 33H339l19.1-33zm.8-.4h38l-19 32.9-19-32.9zm38.9.5l19 32.9h-37.9l18.9-32.9zm.9-.5h38l-19 32.9-19-32.9zm38.9.4l19 33h-38.1l19.1-33zm.9-.4h38l-19 32.9-19-32.9zm38.9.5l19 32.9h-38l19-32.9zm.8-.5h38l-19 32.9-19-32.9zm38.9.5l19 32.9h-38l19-32.9zm.9-.5h38l-19 32.9-19-32.9zm38.9.4l19 33h-38.1l19.1-33zm.9-.4h38l-19 32.9-19-32.9zm38.9.5l19 32.9h-37.9l18.9-32.9zm.8-.5h38l-19 32.9-19-32.9zm38.9.4l19 33h-38.1l19.1-33zm.9-.4h38l-19 32.9-19-32.9zm38.9.5l19 32.9h-38l19-32.9zm.9-.5h38l-19 32.9-19-32.9zm38.9.5l19 32.9h-38l19-32.9zm.8-.5h38l-19 32.9-19-32.9zm39 .4l19 33h-38.1l19.1-33zm.9-.4h38l-19 32.9-19-32.9zm38.8.5l19 32.9h-37.9l18.9-32.9zm.9-.5h38.1l-19 33-19.1-33zm38.9.5l19 32.9h-38l19-32.9zm.9-.5h38l-19 32.9-19-32.9zm38.9.5l19 32.9h-38l19-32.9zm.8-.5h38l-19 32.9-19-32.9zm19.1 34.9l19 32.9h-38l19-32.9zm.8-.5h38l-19 32.9-19-32.9zm38.9.6l19 32.9h-38l19-32.9zm.9-.6h38.1l-19 33-19.1-33zm38.9.5l19 32.9h-38l19-32.9zm.9-.5h38l-19 32.9-19-32.9zm38.9.6l19 32.9h-38l19-32.9zm.8-.6h38.1l-19 33-19.1-33zm39 .5l19 32.9h-38l19-32.9zm.8-.5h38l-19 32.9-19-32.9zm38.9.5l19 32.9h-38l19-32.9zm.9-.5h38l-19 32.9-19-32.9zm38.9.5l19 32.9h-38l19-32.9zm.8-.5h38l-19 32.9-19-32.9zm39 .5l19 32.9h-38l19-32.9zm-19-34.9h38l-19 32.9-19-32.9zm0-1l19-32.9 19 32.9h-38zm18.9-35l-19-32.9h38l-19 32.9zm-19-33.9l19-32.9 19 32.9h-38zm0-67.9h38l-19 32.9-19-32.9zm.1-1l19-32.9 19 32.9h-38zm0-67.9h38l-19 32.9-19-32.9zm-.1-1l19-32.9 19 32.9h-38zm19-34.9l-19-32.9h38l-19 32.9zm-.8.5h-38l19-32.9 19 32.9zm-38.9-.5l-19-32.9h38l-19 32.9zm-.9.5h-38l19-32.9 19 32.9zm-38.9-.5l-19-32.9h38l-19 32.9zm-.9.5h-38l19-32.9 19 32.9zm-38.9-.5l-19-33h38.1l-19.1 33zm-.9.5h-38l19-32.9 19 32.9zm-38.8-.5l-19-32.9h38l-19 32.9zm-.9.5h-38l19-32.9 19 32.9zm-38.9-.5l-19-33h38.1l-19.1 33zm-.9.5h-38l19-32.9 19 32.9zm-38.8-.5l-19-32.9h38l-19 32.9zm-.9.5h-38.1l19-33 19.1 33zm-39-.6l-19-32.9h38l-19 32.9zm-.8.6H856l19-33 19.1 33zm-39-.5l-19-32.9h38l-19 32.9zm-.8.5h-38l19-32.9 19 32.9zm-38.9-.6l-19-32.9h38l-19 32.9zm-.9.6h-38.1l19-33 19.1 33zm-38.9-.6l-19-32.9h38l-19 32.9zm-.9.6h-38l19-32.9 19 32.9zm-38.8-.5l-19-32.9h38l-19 32.9zm-.9.5h-38l19-33 19 33zm-38.9-.6l-19-32.9h38l-19 32.9zm-.9.6h-38l19-33 19 33zm-38.9-.5l-19-32.9h38l-19 32.9zm-.9.5h-38l19-32.9 19 32.9zm-38.8-.6l-19-32.9h38l-19 32.9zm-.9.6h-38.1l19-33 19.1 33zm-38.9-.6l-19-32.9h38l-19 32.9zm-.9.6h-38l19-32.9 19 32.9zm-38.9-.5l-19-32.9h38l-19 32.9zm-.8.5h-38l19-33 19 33zm-39-.6l-19-32.9h38l-19 32.9zm-.8.6h-38l19-33 19 33zm-39-.5l-19-32.9h38l-19 32.9zm-.8.5h-38l19-32.9 19 32.9zm-38.9-.6l-19-32.9h38l-19 32.9zm-.9.6h-38.1l19-33 19.1 33zm-38.9-.5l-19-32.9h38l-19 32.9zm-.9.5h-38l19-32.9 19 32.9zm-38.8-.5l-19-32.9h38l-19 32.9zm-.9.5h-38l19-32.9 19 32.9zm-38.9-.5l-19-32.9h38l-19 32.9zm-.9.5h-38.1l19-33 19.1 33zm-38.9-.5l-19-32.9h38l-19 32.9zm-.9.5h-38l19-32.9 19 32.9zm-38.8-.6l-19-32.9h38l-19 32.9zm-.9.6h-38.1l19-33 19.1 33zm-38.9-.5l-19-32.9h38l-19 32.9zm-.9.5h-38l19-32.9 19 32.9zm-38.9-.5l-19-32.9h38l-19 32.9zm-.8.5h-38l19-32.9 19 32.9zm-39-.5l-19-32.9h38l-19 32.9zm-.8.5h-38l19-33 19 33zm0 1l-19 33-19-33h38zm-19.1 35l19 32.9h-38l19-32.9zm19.1 33.9l-19 32.9-19-32.9h38zm-19 34.9l19 32.9h-38l19-32.9zm18.9 33.9l-19 32.9-19-32.9h38zm0 67.9h-38l19-32.9 19 32.9zm-19.8 34.5h-38l19-32.9 19 32.9zm0 1l-19 32.9-19-32.9h38zm0 67.8h-38l19-32.9 19 32.9zm-18.2-33.4h38l-19 32.9-19-32.9zm38.9.5l19 33h-38l19-33zm.9-.5h38l-19 32.9-19-32.9zm38.9.5l19 32.9h-38l19-32.9zm.9-.5h38.1l-19 33-19.1-33zm38.9.5l19 32.9h-38l19-32.9zm.9-.5h38l-19 32.9-19-32.9zm38.8.5l19 32.9h-38l19-32.9zm.9-.5h38.1l-19 33-19.1-33zm38.9.5l19 32.9h-38l19-32.9zm.9-.5h38l-19 32.9-19-32.9zm38.9.5l19 32.9h-38l19-32.9zm.9-.5h38l-19 32.9-19-32.9zm38.8.5l19 32.9h-38l19-32.9zm.9-.5h38.1l-19 33-19.1-33zm39 .5l19 32.9h-38l19-32.9zm.8-.5h38l-19 32.9-19-32.9zm38.9.5l19 32.9h-38l19-32.9zm.8-.5h38.1l-19 33-19.1-33zm39 .5l19 32.9h-38l19-32.9zm.9-.5h38l-19 32.9-19-32.9zm38.8.5l19 32.9h-38l19-32.9zm.9-.5h38l-19 32.9-19-32.9zm38.9.5l19 32.9h-38l19-32.9zm.9-.5H576l-19 33-19.1-33zm38.9.5l19 32.9h-38l19-32.9zm.9-.5h38l-19 32.9-19-32.9zm38.8.5l19 32.9h-38l19-32.9zm.9-.5h38.1l-19 33-19.1-33zm38.9.5l19 32.9h-38l19-32.9zm.9-.5h38l-19 32.9-19-32.9zm38.9.5l19 32.9h-38l19-32.9zm.9-.5h38l-19 32.9-19-32.9zm38.9.5l19 32.9h-38l19-32.9zm.8-.5h38.1l-19 33-19.1-33zm39 .5l19 32.9h-38l19-32.9zm.8-.5h38l-19 32.9-19-32.9zm38.9.6l19 32.9h-38l19-32.9zm.8-.6h38.1l-19 33-19.1-33zm39 .5l19 32.9h-38l19-32.9zm.9-.5h38l-19 33-19-33zm38 67.9h-38l19-32.9 19 32.9zm-18.2-33.4h38l-19 32.9-19-32.9zm38.9.5l19 32.9h-38l19-32.9zm.9-.5h38l-19 32.9-19-32.9zm38.9.5l19 32.9h-38l19-32.9zm.9-.5h38.1l-19 33-19.1-33zm38.9.5l19 32.9h-38l19-32.9zm.9-.5h38l-19 32.9-19-32.9zm38.9.5l19 32.9h-38l19-32.9zm.8-.5h38.1l-19 33-19.1-33zm38.9.5l19 32.9h-38l19-32.9zm.9-.5h38l-19 32.9-19-32.9zm38.9.5l19 32.9h-38l19-32.9zm.9-.5h38l-19 32.9-19-32.9zm38.9.5l19 32.9h-38l19-32.9zm.8-.5h38l-19 32.9-19-32.9zm38.9.4l19 32.9h-38l19-32.9zm0-2l-19-32.9h38l-19 32.9zm-19-33.9l19-32.9 19 32.9h-38zm19-34.9l-19-32.9h38l-19 32.9zm-19-34l19-32.9 19 32.9h-38zm19-34.9l-19-32.9h38l-19 32.9zm-19-34l19-33 19 33h-38zm19-35l-19-32.9h38l-19 32.9zm-19-33.9l19-32.9 19 32.9h-38zm19-34.9l-19-32.9h38l-19 32.9zm-19-33.9l19-32.9 19 32.9h-38zm0-67.9h38l-19 32.9-19-32.9zm18.2 33.4h-38l19-32.9 19 32.9zm-38.9-.4l-19-33h38.1l-19.1 33zm-.9.4h-38l19-32.9 19 32.9zm-38.9-.5l-19-32.9h38l-19 32.9zm-.9.5h-38l19-33 19 33zm-38.9-.5l-19-32.9h38l-19 32.9zm-.9.5h-38l19-32.9 19 32.9zm-38.9-.4l-19-33h38.1l-19.1 33zm-.9.4h-38l19-32.9 19 32.9zm-38.8-.5l-19-32.9h38l-19 32.9zm-.9.5h-38l19-32.9 19 32.9zm-38.9-.4l-19-33h38.1l-19.1 33zm-.9.4h-38l19-32.9 19 32.9zm-38.9-.5l-19-32.9h38l-19 32.9zm-.8.5h-38.1l19-33 19.1 33zm-39-.5l-19-32.9h38l-19 32.9zm-.8.5h-38l19-32.9 19 32.9zm-38.9-.4l-19-33h38.1l-19.1 33zm-.9.4h-38l19-32.9 19 32.9zm-38.9-.5l-19-32.9h38l-19 32.9zm-.8.5h-38l19-32.9 19 32.9zm-38.9-.4l-19-33h38.1l-19.1 33zm-.9.4h-38l19-32.9 19 32.9zm-38.9-.5l-19-32.9h38l-19 32.9zm-.9.5H677l19-33 19.1 33zm-38.9-.5l-19-32.9h38l-19 32.9zm-.9.5h-38l19-32.9 19 32.9zm-38.9-.4l-19-33h38.1l-19.1 33zm-.9.4h-38l19-32.9 19 32.9zm-38.8-.5l-19-32.9h38l-19 32.9zm-.9.5h-38l19-32.9 19 32.9zm-38.9-.4l-19-33H576l-19.1 33zm-.9.4h-38l19-32.9 19 32.9zm-38.9-.5l-19-32.9h38l-19 32.9zm-.8.5h-38.1l19-33 19.1 33zm-39-.5l-19-32.9h38l-19 32.9zm-.8.5h-38l19-32.9 19 32.9zm-38.9-.4l-19-33h38.1l-19.1 33zm-.9.4h-38l19-32.9 19 32.9zm-38.9-.5l-19-32.9h38l-19 32.9zm-.8.5h-38l19-32.9 19 32.9zm-38.9-.4l-19-33h38.1l-19.1 33zm-1 .4h-38l19-32.9 19 32.9zm-38.8-.5l-19-32.9h38l-19 32.9zm-.9.5h-38.1l19-33 19.1 33zm-38.9-.5l-19-32.9h38l-19 32.9zm-.9.5h-38l19-32.9 19 32.9zm-38.9-.4l-19-33h38.1l-19.1 33zm-.9.4h-38l19-32.9 19 32.9zm-38.8-.5l-19-32.9h38l-19 32.9zm-.9.5h-38l19-32.9 19 32.9zm-38.9-.4l-19-33h38.1l-19.1 33zm-.9.4h-38l19-32.9 19 32.9zm-38.9-.5l-19-32.9h38l-19 32.9zm-.8.5H80.5l19-33 19.1 33zm-39-.5l-19-32.9h38l-19 32.9zm-.8.5h-38l19-32.9 19 32.9zm-.1 1l-19 32.9-19-32.9h38zm-19 35l19 32.9h-38l19-32.9zm19.1 33.9l-19 32.9-19-32.9h38zm-19 34.9l19 32.9h-38l19-32.9zm19 34l-19 33-19-33h38zm0 67.9h-38l19-32.9 19 32.9zm0 1l-19 32.9-19-32.9h38zm-19.9 33.4h-38l19-32.9 19 32.9zm0 1l-19 32.9-19-32.9h38zm-19 35l19 32.9h-38l19-32.9zm19 33.9l-19 32.9-19-32.9h38zm0 67.9h-38l19-32.9 19 32.9zm-18.2-33.4h38l-19 32.9-19-32.9zm38.9.4l19 32.9h-38l19-32.9zm.9-.4h38l-19 32.9-19-32.9zm38.9.4l19 32.9h-38l19-32.9zm.9-.4h38l-19 32.9-19-32.9zm38.9.5l19 32.9h-38l19-32.9zm.9-.5h38l-19 32.9-19-32.9zm38.9.4l19 33h-38.1l19.1-33zm.9-.4h38l-19 32.9-19-32.9zm38.8.5l19 32.9h-38l19-32.9zm.9-.5h38l-19 32.9-19-32.9zm38.9.4l19 32.9h-38l19-32.9zm.9-.4h38l-19 32.9-19-32.9zm38.9.4l19 32.9h-38l19-32.9zm.9-.4h38l-19 32.9-19-32.9zm38.9.5l19 32.9h-38l19-32.9zm.8-.5h38l-19 32.9-19-32.9zm38.9.4l19 33h-38.1l19.1-33zm.9-.4h38l-19 32.9-19-32.9zm38.9.5l19 32.9h-38l19-32.9zm.8-.5h38l-19 32.9-19-32.9zm39 .4l19 32.9h-38l19-32.9zm.8-.4h38l-19 32.9-19-32.9zm38.9.4l19 32.9h-38l19-32.9zm.9-.4h38l-19 32.9-19-32.9zm38.9.5l19 32.9h-38l19-32.9zm.9-.5h38l-19 32.9-19-32.9zm38.9.4l19 33h-38.1l19.1-33zm.9-.4h38l-19 32.9-19-32.9zm38.8.5l19 32.9h-38l19-32.9zm.9-.5h38l-19 32.9-19-32.9zm38.9.4l19 32.9h-38l19-32.9zm.9-.4h38l-19 32.9-19-32.9zm38.9.4l19 32.9h-38l19-32.9zm39.8.1l19 32.9h-38l19-32.9zm.8-.5h38l-19 32.9-19-32.9zm38.9.4l19 32.9h-38l19-32.9zm.9-.4h38l-19 32.9-19-32.9zm38.9.5l19 32.9h-38l19-32.9zm.8-.5h38.1l-19 33-19.1-33zm38 67.8h-37.9l19-32.9 18.9 32.9zM856 507.2h38.1l-19 33-19.1-33zm39 .5l19 32.9h-38l19-32.9zm.8-.5h38l-19 32.9-19-32.9zm38.9.5l19 32.9h-38l19-32.9zm.9-.5h38l-19 32.9-19-32.9zm38.9.5l19 32.9h-38l19-32.9zm.8-.5h38.1l-19 33-19.1-33zm39 .5l19 32.9h-38l19-32.9zm.9-.5h38l-19 32.9-19-32.9zm38.8.5l19 32.9h-38l19-32.9zm.9-.5h38.1l-19 33-19.1-33zm38.9.5l19 32.9h-38l19-32.9zm.9-.5h38l-19 32.9-19-32.9zm38.9.5l19 32.9h-38l19-32.9zm.9-.5h38l-19 32.9-19-32.9zm38.8.5l19 32.9h-38l19-32.9zm.9-.5h38l-19 32.9-19-32.9zm38.9.5l19 32.9h-38l19-32.9zm-19-34.9h38l-19 32.9-19-32.9zm0-1.1l19-32.9 19 32.9h-38zm19-34.9l-19-32.9h38l-19 32.9zm-19-33.9l19-32.9 19 32.9h-38zm19-35l-19-32.9h38l-19 32.9zm-19-33.9l19-32.9 19 32.9h-38zm0-67.9h38l-19 32.9-19-32.9zm0-1l19-32.9 19 32.9h-38zm19-35l-19-32.9h38l-19 32.9zm-19-33.9l19-32.9 19 32.9h-38zm0-67.9h38l-19 32.9-19-32.9zm0-1l19-32.9 19 32.9h-38zm19-34.9l-19-32.9h38l-19 32.9zm-.9.5h-38l19-32.9 19 32.9zm-38.8-.5l-19-32.9h38l-19 32.9zm-.9.5h-38l19-32.9 19 32.9zm-38.9-.5l-19-32.9h38l-19 32.9zm-.9.5h-38l19-32.9 19 32.9zm-38.9-.6l-19-32.9h38l-19 32.9zm-.8.6h-38l19-32.9 19 32.9zm-39-.5l-19-32.9h38l-19 32.9zm-.8.5h-38l19-32.9 19 32.9zm-38.9-.5l-19-33h38.1l-19.1 33zm-1 .5h-37.9l19-32.9 18.9 32.9zm-38.8-.5l-19-32.9h38l-19 32.9zm-.9.5h-38l19-32.9 19 32.9zm-38.9-.5l-19-32.9h38l-19 32.9zm-.9.5h-38l19-32.9 19 32.9zm-38.9-.6l-19-32.9h37.9l-18.9 32.9zm-.8.6h-38l19-32.9 19 32.9zm-38.9-.5l-19-32.9h38l-19 32.9zm-.9.5h-38l19-32.9 19 32.9zm-38.9-.5l-19-32.9h38l-19 32.9zm-.9.5h-37.9l19-32.9 18.9 32.9zm-38.8-.5l-19-32.9h38l-19 32.9zm-.9.5h-38l19-32.9 19 32.9zm-38.9-.5l-19-32.9h38l-19 32.9zm-.9.5h-38L716 60l19 32.9zm-38.9-.6l-19-32.9H715l-18.9 32.9zm-.9.6h-38l19-32.9 19 32.9zm-38.9-.5l-19-32.9h38l-19 32.9zm-.9.5h-38l19-32.9 19 32.9zm-38.9-.5l-19-32.9h38l-19 32.9zm-.9.5h-37.9l19-32.9 18.9 32.9zm-38.8-.5l-19-32.9h38l-19 32.9zm-.9.5h-38l19-32.9 19 32.9zm-38.9-.5l-19-32.9h38l-19 32.9zm-.9.5h-38l19-32.9 19 32.9zm-38.9-.6l-19-32.9h37.9l-18.9 32.9zm-.8.6h-38l19-32.9 19 32.9zm-38.9-.5l-19-32.9h38l-19 32.9zm-.9.5h-38l19-32.9 19 32.9zm-38.9-.5l-19-32.9h38l-19 32.9zm-.9.5h-37.9l19-32.9 18.9 32.9zm-38.8-.5l-19-32.9h38l-19 32.9zm-.9.5h-38l19-32.9 19 32.9zm-39-.5l-19-32.9h38l-19 32.9zm-.8.5h-38l19-32.9 19 32.9zm-38.9-.6l-19-32.9h37.9l-18.9 32.9zm-.9.6h-38l19-32.9 19 32.9zm-38.9-.5l-19-32.9h38l-19 32.9zm-.9.5h-38l19-32.9 19 32.9zm-38.9-.5l-19-32.9h38l-19 32.9zm-.9.5H180L199 60l18.9 32.9zm-38.8-.5l-19-32.9h38l-19 32.9zm-.9.5h-38l19-32.9 19 32.9zm-38.9-.5l-19-32.9h38l-19 32.9zm-.9.5h-38l19-32.9 19 32.9zm-38.9-.6l-19-32.9h37.9L99.5 92.3zm-.8.6h-38l19-32.9 19 32.9zm-38.9-.5l-19-32.9h38l-19 32.9zm-.9.5h-38l19-32.9 19 32.9zm0 1l-19 33-19-33h38zm-19 35l19 32.9h-38l19-32.9zm19 33.9l-19 32.9-19-32.9h38zm-19 34.9l19 33H20.8l19.1-33zm19 34l-19 32.9-19-32.9h38zm-19 34.9l19 32.9h-38l19-32.9zm19 33.9l-19 32.9-19-32.9h38zM20 367.9L1 335h38l-19 32.9zm19 35H1L20 370l19 32.9zm0 1l-19 32.9-19-32.9h38zm0 67.8H1l19-32.9 19 32.9zm0 1.1l-19 32.9-19-32.9h38zm0 67.8H1l19-32.9 19 32.9zm-18.1-33.4h38l-19 32.9-19-32.9zm38.9.5l19 32.9h-38l19-32.9zm.8-.5h38l-19 32.9-19-32.9zm38.9.5l19 32.9h-38l19-32.9zm.9-.5h38l-19 32.9-19-32.9zm38.9.5l19 32.9h-38l19-32.9zm.9-.5h38l-19 32.9-19-32.9zm38.9.5l19 32.9h-38l19-32.9zm.8-.5h38l-19 32.9-19-32.9zm39 .5l19 32.9h-38l19-32.9zm.9-.5h38l-19 32.9-19-32.9zm38.8.5l19 32.9h-38l19-32.9zm.9-.5h38l-19 32.9-19-32.9zm38.9.5l19 32.9h-38l19-32.9zm.9-.5h38l-19 32.9-19-32.9zm38.9.5l19 32.9h-38l19-32.9zm.8-.5h38l-19 32.9-19-32.9zm38.9.5l19 32.9h-38l19-32.9zm.9-.5h38l-19 32.9-19-32.9zm38.9.5l19 32.9h-38l19-32.9zm.9-.5h38l-19 32.9-19-32.9zm38.8.5l19 32.9h-38l19-32.9zm.9-.5h38l-19 32.9-19-32.9zm38.9.5l19 32.9h-38l19-32.9zm.9-.5h38l-19 32.9-19-32.9zm38.9.5l19 32.9h-38l19-32.9zm.9-.5h38l-19 32.9-19-32.9zm38.9.5l19 32.9h-38l19-32.9zm.8-.5h38l-19 32.9-19-32.9zm39 .5l19 32.9h-38l19-32.9zm.9-.5h38l-19 32.9-19-32.9zm38.8.5l19 32.9h-38l19-32.9zm.9-.5h38l-19 32.9-19-32.9zm38.9.5l19 32.9h-38l19-32.9zm.9-.5h38l-19 32.9-19-32.9zm57.9 34.4l-19 32.9-19-32.9h38zm-18.2-34.4h38l-19 32.9-19-32.9zm38.9.5l19 32.9h-38l19-32.9zm.9-.5h38.1l-19 33-19.1-33zm38.9.5l19 32.9h-38l19-32.9zm.9-.5h38l-19 32.9-19-32.9zm57.9 34.4l-19 32.9-19-32.9h38zm.9.6l19 32.9h-38l19-32.9zm.8-.6H914l-19 33-19.1-33zm39 .6l19 32.9h-38l19-32.9zm.8-.6h38l-19 32.9-19-32.9zm38.9.6l19 32.9h-38l19-32.9zm.9-.6h38l-19 33-19-33zm38.9.6l19 32.9h-38l19-32.9zm.8-.6h38.1l-19 33-19.1-33zm39 .6l19 32.9h-38l19-32.9zm.8-.6h38l-19 32.9-19-32.9zm38.9.6l19 32.9h-38l19-32.9zm.9-.6h38l-19 33-19-33zm38.9.5l19 32.9h-38l19-32.9zm.9-.5h38l-19 32.9-19-32.9zm38.9.5l19 32.9h-38l19-32.9zm.9-.5h38l-19 32.9-19-32.9zm38.8.5l19 32.9h-38l19-32.9zm.9-.5h38l-19 32.9-19-32.9zm38.9.5l19 32.9h-38l19-32.9zm0-2l-19-32.9h38l-19 32.9zm-19-33.9l19-32.9 19 32.9h-38zm19-35l-19-32.9h38l-19 32.9zm-19-33.9l19-32.9 19 32.9h-38zm19-35l-19-32.9h38l-19 32.9zm-19-33.9l19-33 19 33h-38zm19-35l-19-32.9h38l-19 32.9zm-19-33.9l19-32.9 19 32.9h-38zm19-34.9l-19-32.9h38l-19 32.9zm-19-34l19-33 19 33h-38zm0-67.8h38l-19 32.9-19-32.9zm0-1l19-32.9 19 32.9h-38zm0-67.9h38.1l-19 33-19.1-33zm0-1l19-32.9 19 32.9h-38zm19-35L1214 25h38l-19 32.9zm-.9.5h-38l19-32.9 19 32.9zm-38.9-.4l-19-33h38.1l-19.1 33zm-.9.4h-38l19-32.9 19 32.9zm-38.8-.5l-19-32.9h38l-19 32.9zm-.9.5h-38.1l19-33 19.1 33zm-38.9-.5l-19-32.9h38l-19 32.9zm-.9.5h-38l19-32.9 19 32.9zm-38.9-.5l-19-32.9h38l-19 32.9zm-.8.5h-38l19-32.9 19 32.9zm-38.9-.4l-19-33h38l-19 33zm-.9.4h-38l19-32.9 19 32.9zm-38.9-.4l-19-33h38.1l-19.1 33zm-.9.4h-38l19-32.9 19 32.9zm-38.9-.5l-19-32.9h38l-19 32.9zm-.9.5h-38.1l19-33 19.1 33zm-38.9-.5l-19-32.9h38l-19 32.9zm-.9.5h-38l19-32.9 19 32.9zm-38.8-.5l-19-32.9h38l-19 32.9zm-.9.5h-38.1l19-33 19.1 33zm-38.9-.5l-19-32.9h38l-19 32.9zm-.9.5h-38l19-32.9 19 32.9zm-38.9-.4l-19-33h38.1l-19.1 33zm-.9.4h-38l19-32.9 19 32.9zm-38.8-.5l-19-32.9h38l-19 32.9zm-.9.5h-38.1l19-33 19.1 33zm-39-.5l-19-32.9h38l-19 32.9zm-.8.5h-38l19-32.9 19 32.9zm-38.9-.5l-19-32.9h38l-19 32.9zm-.8.5h-38.1l19-33 19.1 33zm-39-.5l-19-32.9h38l-19 32.9zm-.8.5h-38l19-32.9 19 32.9zm-38.9-.4l-19-33h38.1l-19.1 33zm-1 .4h-38l19-32.9 19 32.9zm-38.8-.5l-19-32.9h38l-19 32.9zm-.9.5h-38l19-33 19 33zm-38.9-.5l-19-32.9h38l-19 32.9zm-.9.5h-38l19-32.9 19 32.9zm-38.8-.5l-19-32.9h38l-19 32.9zm-.9.5h-38.1l19-33 19.1 33zm-38.9-.5l-19-32.9h38l-19 32.9zm-.9.5h-38l19-32.9 19 32.9zm-38.9-.4l-19-33h38.1l-19.1 33zm-.9.4h-38l19-32.9 19 32.9zm-38.8-.5l-19-32.9h38l-19 32.9zm-.9.5h-38.1l19-33 19.1 33zm-39-.5l-19-32.9h38l-19 32.9zm-.8.5h-38l19-32.9 19 32.9zm-38.9-.5l-19-32.9h38l-19 32.9zm-.8.5h-38.1l19-33 19.1 33zm-39-.5l-19-32.9h38l-19 32.9zm-.8.5h-38l19-32.9 19 32.9zM199 58l-19-33h38l-19 33zm-1 .4h-38l19-32.9 19 32.9zm-38.8-.5l-19-32.9h38l-19 32.9zm-.9.5h-38.1l19-33 19.1 33zm-38.9-.5l-19-32.9h38l-19 32.9zm-.9.5h-38l19-32.9 19 32.9zm-38.8-.5L60.7 25h38l-19 32.9zm-.9.5H40.7l19-33 19.1 33zm-38.9-.5L20.9 25h38l-19 32.9zm-.9.5H1l19-32.9 19 32.9zm0 1l-19 33L1 59.5h38zm-19 35l19 32.9H1l19-32.9zm19 33.9l-19 32.9-19-32.9h38zm-19 35l19 32.9H1l19-32.9zm19 33.9l-19 32.9-19-32.9h38zm-19 35l19 32.9H1l19-32.9zm19 33.9L20 299 1 266.1h38zm0 67.9H1l19-33 19 33zm-19.9 34.4h-34.2v-6.7L.1 335.4l19 33zm0 1l-19 32.9-15.2-26.3v-6.6h34.2zm0 67.9h-34.4V431L.1 404.4l19 32.9zm0 1l-19 32.9-15.4-26.7v-6.2h34.4zm-19 34.9l19 32.9h-34.6v-6L.1 473.2zm19 34l-19 32.9-15.6-27v-5.9h34.6zm0 67.9h-34.8v-5.6L.1 542.2l19 32.9zM1 541.6h38l-19 32.9-19-32.9zm38.9.5l19 33h-38l19-33zm.9-.5h38l-19 32.9-19-32.9zm38.8.5l19 32.9h-38l19-32.9zm.9-.5h38l-19 32.9-19-32.9zm38.9.6l19 32.9h-38l19-32.9zm.9-.6h38l-19 32.9-19-32.9zm38.9.5l19 32.9h-38l19-32.9zm.9-.5h38l-19 32.9-19-32.9zm38.9.6l19 32.9h-38l19-32.9zm.8-.6h38l-19 32.9-19-32.9zm38.9.5l19 33h-38l19-33zm.9-.5h38l-19 32.9-19-32.9zm38.9.6l19 32.9h-38l19-32.9zm.8-.6h38.1l-19 33-19.1-33zm39 .6l19 32.9h-38l19-32.9zm.9-.6h38l-19 32.9-19-32.9zm38.8.5l19 33h-38l19-33zm.9-.5h38l-19 32.9-19-32.9zm38.9.6l19 32.9h-38l19-32.9zm.9-.6h38l-19 32.9-19-32.9zm38.9.5l19 33h-38l19-33zm.9-.5h38l-19 32.9-19-32.9zm38.8.6l19 32.9h-38l19-32.9zm.9-.6h38.1l-19 33-19.1-33zm38.9.6l19 32.9h-38l19-32.9zm.9-.6h38l-19 32.9-19-32.9zm38.9.5l19 33h-38l19-33zm.9-.5h38l-19 32.9-19-32.9zm38.9.6l19 32.9h-38l19-32.9zm.8-.6h38l-19 32.9-19-32.9zm38.9.5l19 33h-38l19-33zm.9-.5h38l-19 32.9-19-32.9zm38.9.6l19 32.9h-38l19-32.9zm39.8 0l19 32.9h-38l19-32.9zm19.9 34.4l19 32.9h-38l19-32.9zm19.9-34.5l19 32.9h-38l19-32.9zm39.7.1l19 32.9h-38l19-32.9zm39.8 0l19 32.9h-38l19-32.9zm19.9 34.4l19 32.9h-38l19-32.9zm.9-.5h38l-19 32.9-19-32.9zm38.8.5l19 32.9h-38l19-32.9zm.9-.5h38.1l-19 33-19.1-33zm38.9.5l19 32.9h-38l19-32.9zm.9-.5h38l-19 32.9-19-32.9zm38.9.5l19 32.9h-38l19-32.9zm.9-.5h38.1l-19 33-19.1-33zm38.9.5l19 32.9h-38l19-32.9zm.8-.5h38.1l-19 33-19.1-33zm39 .5l19 32.9h-38l19-32.9zm.8-.5h38l-19 32.9-19-32.9zm38.9.5l19 32.9h-38l19-32.9zm.9-.5h38l-19 32.9-19-32.9zm38.9.5l19 32.9h-38l19-32.9zm.9-.5h38l-19 32.9-19-32.9zm38.9.5l19 32.9h-38l19-32.9zm.8-.5h38l-19 32.9-19-32.9zm38.9.5l19 32.9h-38l19-32.9zm.9-.5h38l-19 32.9-19-32.9zm38.9.5l19 32.9h-38l19-32.9zm0-2.1l-19-32.9h38l-19 32.9zm-19-33.9l19-32.9 19 32.9h-38zm19-34.9l-19-32.9h38l-19 32.9zm-19-34l19-32.9 19 32.9h-38zm0-67.8h38l-19 32.9-19-32.9zm0-1l19-33 19 33h-38zm0-67.9h38l-19 32.9-19-32.9zm0-1l19-32.9 19 32.9h-38zm19-35l-19-32.9h38l-19 32.9zm-19-33.9l19-32.9 19 32.9h-38zm19-35l-19-32.9h38l-19 32.9zm-19-33.9l19-32.9 19 32.9h-38zm19-34.9l-19-32.9h38l-19 32.9zm-19-34l19-32.9 19 32.9h-38zm0-67.9h38l-19 32.9-19-32.9zm0-1l19-33 19 33h-38zm-.9-67.3l1.4 2.4h-2.8l1.4-2.4zm-2 3.4h4l17 29.5h-38l17-29.5zm-1.1 0l-16.7 29-16.7-29h33.4zm-36.7-3.4l1.4 2.4h-2.8l1.4-2.4zm-2 3.4h4l17 29.5h-38l17-29.5zm-1.1 0l-16.7 29-16.8-29h33.5zm-36.7-3.4l1.4 2.4h-2.8l1.4-2.4zm-2 3.4h4l17 29.5h-38l17-29.5zm-1.1 0l-16.7 28.9-16.7-28.9h33.4zm-36.6-3.4l1.4 2.4h-2.8l1.4-2.4zm-2 3.4h4l17 29.5h-38l17-29.5zm-1.2 0l-16.7 29-16.8-29h33.5zm-36.6-3.4l1.4 2.4h-2.8l1.4-2.4zm-2 3.4h4l17 29.5h-38l17-29.5zm-1.2 0l-16.7 29-16.7-28.9h33.4zm-36.5-3.4l1.4 2.4h-2.8l1.4-2.4zm-2 3.4h4l17 29.5h-38l17-29.5zm-1.2 0l-16.7 29-16.7-29h33.4zm-36.6-3.4l1.4 2.4H993l1.4-2.4zm-2 3.4h4l17 29.5h-38l17-29.5zm-1.2 0l-16.7 29-16.7-29h33.4zm-36.6-3.4l1.4 2.4h-2.8l1.4-2.4zm-2 3.4h4l17 29.5h-38l17-29.5zm-1.2 0l-16.7 28.9L918-5.5h33.4zm-36.6-3.4l1.4 2.4h-2.8l1.4-2.4zm-1.9 3.4h4l17 29.5h-38l17-29.5zm-1.2 0l-16.7 29-16.7-29h33.4zM875-8.9l1.4 2.4h-2.8l1.4-2.4zm-2 3.4h4L894 24h-38l17-29.5zm-1.1 0l-16.7 28.9-16.7-28.9h33.4zm-36.6-3.4l1.4 2.4h-2.8l1.4-2.4zm-2 3.4h4l17 29.5h-38l17-29.5zm-1.1 0l-16.7 29-16.7-29h33.4zm-36.7-3.4l1.4 2.4h-2.8l1.4-2.4zm-2 3.4h4l17 29.5h-38l17-29.5zm-1.1 0l-16.7 29-16.7-29h33.4zm-36.7-3.4l1.4 2.4h-2.8l1.4-2.4zm-2 3.4h4l17 29.5h-38l17-29.5zm-1.2 0l-16.7 28.9-16.6-28.9h33.3zM716-8.9l1.4 2.4h-2.8l1.4-2.4zm-2 3.4h4L735 24h-38l17-29.5zm-1.2 0l-16.7 29-16.7-29h33.4zm-36.6-3.4l1.4 2.4h-2.8l1.4-2.4zm-2 3.4h4l17 29.5h-38l17-29.5zm-1.2 0l-16.7 28.9-16.7-28.9H673zm-36.5-3.4l1.4 2.4h-2.8l1.4-2.4zm-2 3.4h4l17 29.5h-38l17-29.5zm-1.2 0l-16.7 29-16.7-29h33.4zm-36.6-3.4l1.4 2.4h-2.8l1.4-2.4zm-2 3.4h4l17 29.5h-38l17-29.5zm-1.2 0l-16.7 29-16.8-29h33.5zm-36.6-3.4l1.4 2.4h-2.8l1.4-2.4zm-2 3.4h4l17 29.5h-38l17-29.5zm-1.2 0L537 23.4 520.3-5.5h33.4zm-36.6-3.4l1.4 2.4h-2.8l1.4-2.4zm-1.9 3.4h4l17 29.5h-38l17-29.5zm-1.2 0l-16.7 29-16.7-29H514zm-36.7-3.4l1.4 2.4h-2.8l1.4-2.4zm-2 3.4h4l17 29.5h-38l17-29.5zm-1.1 0l-16.7 28.9-16.7-28.9h33.4zm-36.6-3.4l1.4 2.4h-2.8l1.4-2.4zm-2 3.4h4l17 29.5h-38l17-29.5zm-1.1 0l-16.7 29-16.8-29h33.5zm-36.7-3.4l1.4 2.4h-2.8l1.4-2.4zm-2 3.4h4l17 29.5h-38l17-29.5zm-1.1 0l-16.7 29-16.7-29h33.4zM358-8.9l1.4 2.4h-2.8l1.4-2.4zm-2 3.4h4L377 24h-38l17-29.5zm-1.2 0l-16.7 28.9-16.6-28.9h33.3zm-36.5-3.4l1.4 2.4h-2.8l1.4-2.4zm-2 3.4h4l17 29.5h-38l17-29.5zm-1.2 0l-16.7 29-16.7-29h33.4zm-36.6-3.4l1.4 2.4h-2.8l1.4-2.4zm-2 3.4h4l17 29.5h-38l17-29.5zm-1.2 0l-16.7 28.9-16.7-28.9h33.4zm-36.5-3.4l1.4 2.4h-2.8l1.4-2.4zm-2 3.4h4l17 29.5h-38l17-29.5zm-1.2 0l-16.7 29-16.7-29h33.4zM199-8.9l1.4 2.4h-2.8l1.4-2.4zm-2 3.4h4L218 24h-38l17-29.5zm-1.2 0l-16.7 29-16.7-29h33.4zm-36.6-3.4l1.4 2.4h-2.8l1.4-2.4zm-2 3.4h4l17 29.5h-38l17-29.5zm-1.2 0l-16.7 28.9-16.7-28.9H156zm-36.6-3.4l1.4 2.4H118l1.4-2.4zm-1.9 3.4h4l17 29.5h-38l17-29.5zm-1.2 0l-16.7 29-16.7-29h33.4zM79.6-8.9L81-6.5h-2.8l1.4-2.4zm-2 3.4h4l17 29.5h-38l17-29.5zm-1.1 0L59.8 23.4 43.1-5.5h33.4zM39.9-8.9l1.4 2.4h-2.8l1.4-2.4zm-2 3.4h4l17 29.5h-38l17-29.5zm-1.1 0L20 23.5 3.3-5.5h33.5zM.1-8.9l1.4 2.4h-2.8L.1-8.9zM-14-5.5h11l-11 19v-19zm0 21.1L-1.9-5.5h4l17 29.5h-33.2l.1-8.4zm-.1 9.4h33.2L.1 58l-14.2-24.6V25zm0 10.4l13.3 23h-13.4l.1-23zm-.1 24H-.8l-13.5 23.4.1-23.4zm0 25.5L.1 60l19 32.9h-33.3v-8zm-.1 9h33.4l-19 32.9-14.4-24.9v-8zm0 9.9l13.5 23.5h-13.6l.1-23.5zm-.1 24.5H-.8L-14.4 152v-23.7zm0 25.7L.2 128.8l19 33h-33.6V154zm-.1 8.8h33.6l-19 32.9-14.6-25.3v-7.6zm0 9.7l13.7 23.8h-13.8l.1-23.8zm-.1 24.7H-.8l-13.9 24 .1-24zm0 26.1L.2 197.7l19 32.9h-33.8v-7.3zm-.1 8.4h33.8l-19 32.9-14.8-25.6v-7.3zm0 9.2l14 24.2h-14v-24.2zm-.1 25.2h14l-14.1 24.3.1-24.3zm-.1 26.4l15-25.9 19 33h-34v-7.1zm0 8h34l-19 32.9-15-26v-6.9zm0 9L-.8 334H-15l.1-24.5zM-15 335H-.8L-15 359.7V335zm-.1-317.7V24h-3.8l3.8-6.7zm-3.8 7.7h3.9v6.7l-3.9-6.7zm3.8 353l14.3 24.8h-14.4l.1-24.8zm-.1 25.9H-.8L-15.3 429l.1-25.1zm-.1-317.3v6.3h-3.6l3.6-6.3zm-3.6 7.3h3.6v6.2l-3.6-6.2zm3.6 352.6l14.6 25.2h-14.6v-25.2zm-.1 26.3H-.8l-14.7 25.4.1-25.4zm-.1-317v6h-3.4l3.4-6zm-3.4 7h3.4v5.9l-3.4-5.9zm3.4 352.3l14.7 25.5h-14.8l.1-25.5zm-.1 26.5H-.8l-14.9 25.8.1-25.8zm-.1-316.5v5.6h-3.2l3.2-5.6zm-3.2 6.6h3.2v5.5l-3.2-5.5zm3 74l-3-5.2h3v5.2zm0-6.2h-3l3-5.3v5.3zm0 337.1l.1-26.1h15l-15.1 26.1zm.1-27.1l.1-25.9 14.9 25.9h-15zm.1-27.9V576h34.8l-19 33-15.8-27.4zM20 643.5l-19-33h38l-19 33zm-19-34l19-32.9 19 32.9H1zm19.9-33.4h38l-19 32.9-19-32.9zm38.9 67.4l-19-32.9h38l-19 32.9zm-19-34l19-32.9 19 32.9h-38zm19.9-33.4h38l-19 32.9-19-32.9zm38.8 67.3l-19-32.9h38l-19 32.9zm-19-33.9l19-32.9 19 32.9h-38zm19.9-33.4h38l-19 32.9-19-32.9zm38.9 67.4l-19-32.9h38l-19 32.9zm-19-34l19-32.9 19 32.9h-38zm19.9-33.4h38l-19 32.9-19-32.9zm38.9 67.3l-19-32.9h38l-19 32.9zm-19-33.9l19-32.9 19 32.9h-38zm19.9-33.4h38L199 609l-19-32.9zm38.8 67.3l-19-32.9h38l-19 32.9zm-19-33.9l19-32.9 19 32.9h-38zm19.9-33.4h38l-19 32.9-19-32.9zm38.9 67.4l-19-33h38.1l-19.1 33zm-19-34l19-33 19 33h-38zm19.9-33.4h38l-19 32.9-19-32.9zm38.9 67.3l-19-32.9h38l-19 32.9zm-19-33.9l19-32.9 19 32.9h-38zm19.8-33.4h38l-19 32.9-19-32.9zm38.9 67.4l-19-33h38.1l-19.1 33zm-19-34l19-33 19 33h-38zm19.9-33.4h38L358 609l-19-32.9zm38.9 67.3l-19-32.9h38l-19 32.9zm-19-33.9l19-32.9 19 32.9h-38zm19.9-33.4h38l-19 32.9-19-32.9zm38.9 67.3l-19-32.9h38l-19 32.9zm-19-33.9l19-32.9 19 32.9h-38zm19.9-33.4h38l-19 32.9-19-32.9zm38.9 67.4l-19-33h38.1l-19.1 33zm-19-34l19-33 19 33h-38zm19.9-33.4h38l-19 32.9-19-32.9zm38.8 67.3l-19-32.9h38l-19 32.9zm-18.9-33.9l19-32.9 19 32.9h-38zm19.8-33.4h38l-19 32.9-19-32.9zm38.9 67.4l-19-33h38l-19 33zm-19-34l19-33 19 33h-38zm19.9-33.4h38l-19 32.9-19-32.9zm38.9 67.3l-19-32.9h38l-19 32.9zm-19-33.9l19-32.9 19 32.9h-38zm19.9-33.4h38l-19 32.9-19-32.9zm38.8 67.3l-19-32.9h38l-19 32.9zm-19-33.9l19-32.9 19 32.9h-38zm19.9-33.4h38l-19 32.9-19-32.9zm38.9 67.4l-19-33h38.1l-19.1 33zm-19-34l19-33 19 33h-38zm19.9-33.4h38l-19 32.9-19-32.9zm38.9 67.3l-19-32.9h38l-19 32.9zm.8-67.3H735l-19 33-19.1-33zm39 67.4l-19-33H755l-19.1 33zm.8-67.4h38l-19 32.9-19-32.9zm39 67.4l-19-32.9h38l-19 32.9zm.8-67.4h38.1l-19 33-19.1-33zm38.9 67.4l-19-32.9h38l-19 32.9zm.9-67.4h38l-19 32.9-19-32.9zm19.9 34.4h38.1l-19 33-19.1-33zm19.9 33.4l19-32.9 18.9 32.8-37.9.1zm19.9-33.4h38l-19 32.9-19-32.9zm19.9 33.3l18.9-32.7 18.8 32.6-37.7.1zm19.8-33.3h38.1l-19 33-19.1-33zm20.1 33.2l18.9-32.7 18.8 32.6-37.7.1zm19.7-33.2h38l-19 32.9-19-32.9zm20.1 33.1l18.8-32.5 18.7 32.4-37.5.1zm19.6-33.1h38.1l-19 33-19.1-33zm20.2 33l18.7-32.4 18.7 32.3-37.4.1zm38.6-.1l-19-32.9h38.1l-19 32.9h-.1zm1.3 0l18.7-32.3 18.6 32.2-37.3.1zm38.4-.1l-18.9-32.7h38l-18.9 32.7h-.2zm1.4 0l18.6-32.2 18.5 32.1-37.1.1zm38.3-.2l-18.8-32.6h38l-18.8 32.6h-.4zm1.5 0l18.5-32.1 18.5 32-37 .1zm38.2-.1l-18.8-32.5h38l-18.8 32.5h-.4zm1.7 0l18.5-32 18.4 31.9-36.9.1zm38.6-.1h-.6l-18.7-32.4h38l-18.7 32.4zm1.2 0L1233 611l18.4 31.8-36.8.1zm38.6-.1h-.7l-18.6-32.3h38l-18.7 32.3zm28.5-.1l-27.2.1 18.4-31.8 8.9 15.4v16.3zm0-18.3l-8-13.8h8v13.8zm0-14.9h-8l8-13.9v13.9zm0-15.9l-8.9 15.4-19-32.9h27.9v17.5zm0-18.5h-27.9l19-32.9 8.9 15.4v17.5zm0-19.6l-8-13.9h8v13.9zm0-14.9h-8l8-13.9v13.9zm0-15.9l-8.9 15.4-19-32.9h27.9v17.5zm0-18.5h-27.9l19-32.9 8.9 15.4v17.5zm0-19.6l-8-13.8h8v13.8zm0-14.9h-8l8-13.9v13.9zm0-15.9l-8.9 15.4-19-32.9h27.9v17.5zm0-18.5h-27.9l19-33 8.9 15.4v17.6zm0-19.6l-8-13.8h8v13.8zm0-14.8h-8l8-13.9v13.9zm0-16l-8.9 15.4-19-32.9h27.9v17.5zm0-18.5h-27.9l19-32.9 8.9 15.4v17.5zm0-19.6l-8-13.9h8v13.9zm0-14.8h-8l8-13.9V334zm0-15.9l-8.9 15.4-19-32.9h27.9v17.5zm0-18.6h-27.9l19-32.9 8.9 15.4v17.5zm0-19.6l-8-13.8h8v13.8zm0-14.8h-8l8-13.9v13.9zm0-15.9l-8.9 15.4-19-32.9h27.9v17.5zm0-18.6h-27.9l19-32.9 8.9 15.4v17.5zm0-19.5l-8-13.9h8v13.9zm0-14.9h-8l8-13.9v13.9zm0-15.9l-8.9 15.4-19-32.9h27.9v17.5zm0-18.5h-27.9l19-33 8.9 15.4v17.6zm0-19.6l-8-13.9h8v13.9zm0-14.9h-8l8-13.9v13.9zm0-15.9l-8.9 15.4-19-32.9h27.9v17.5zm0-18.5h-27.9l19-32.9 8.9 15.4v17.5zm0-19.6l-8-13.8h8v13.8zm0-14.9h-8l8-13.8v13.8zm0-15.8l-8.9 15.4-19-32.9h27.9v17.5zm0-18.6h-27.9l17-29.5h4l6.9 12V24zm-5.8-29.5h5.8v10l-5.8-10z"/><path class="st2" d="M778.4 752.5L407.2 110.3h742.4L778.4 752.5z"/><path class="st2" d="M1112.7 662.1L778.4 83.8H1447l-334.3 578.3z"/><path class="st2" d="M878.2 381L654.5-6H1102L878.2 381z"/><radialGradient id="SVGID_1_" cx="892.881" cy="-1157.247" r="496.251" gradientTransform="matrix(1 0 0 -.8119 0 -640.531)" gradientUnits="userSpaceOnUse"><stop offset=".01" stop-color="#010101" stop-opacity="0"/><stop offset=".933" stop-color="#010101" stop-opacity=".932"/><stop offset="1" stop-color="#010101"/></radialGradient><path class="st3" d="M-16.2-8.2h1298.5v650.1H-16.2z"/></svg>